<?xml version="1.0" encoding="UTF-8"?>
<svg id="Layer_2" data-name="Layer 2" xmlns="http://www.w3.org/2000/svg" viewBox="0 0 128.82 147.01">
  <defs>
    <style>
      .cls-1 {
        fill: #b58f62;
      }
    </style>
  </defs>
  <g id="Layer_1-2" data-name="Layer 1">
    <g>
      <polygon class="cls-1" points="21.47 104.99 21.47 83.97 42.94 62.96 21.47 62.96 0 83.97 21.47 104.99 21.47 104.99"/>
      <polygon class="cls-1" points="107.35 104.99 128.82 83.97 107.35 62.96 85.88 62.96 107.35 83.97 107.35 104.99"/>
      <path class="cls-1" d="M67.79,20.67c-.19-.96-.37-1.93-.54-2.92.33-.06.64-.18.92-.34,1.2-.7,1.84-2.18,1.58-3.75l-.65-3.99c-.24-1.49-1.6-2.57-3.05-2.57h-.26l-.63-7.1h-1.56l-.59,7.1h-.24c-1.45,0-2.81,1.09-3.05,2.57l-.65,3.99c-.25,1.53.35,2.98,1.5,3.69.28.18.59.31.92.38-.18.97-.36,1.94-.54,2.89-9.21,47.68-22.84,67.42-39.49,84.36l1.46,1.42,41.48,40.6,42.94-42.02c-16.65-16.94-30.56-36.67-39.57-84.32ZM64.42,49.81l5.7,21.4h-11.41l5.71-21.4ZM25.91,106.8h15.93l16.47,31.71-32.4-31.71ZM42.94,104.98h0s.56-21.01,21.47-21.01,21.46,21.01,21.46,21.01h0l-21.47,41.34-21.48-41.34ZM70.52,138.5l16.46-31.7h15.93l-32.39,31.7Z"/>
    </g>
  </g>
</svg>